####
#
# OBJ File Generated by Meshlab
#
####
# Object cone.obj
#
# Vertices: 162
# Faces: 192
#
####
vn 0.087754 1.404205 2.808410
v 0.000000 1.666667 0.416667
vn 0.000001 2.672930 5.345860
v 0.000000 0.833333 0.833333
vn -0.087753 -1.663535 2.672930
v 0.000000 0.000000 1.250000
vn 0.000000 -6.000000 0.000000
v 0.000000 0.000000 0.833333
vn 0.000000 -3.067740 0.000000
v 0.000000 0.000000 0.416667
vn 0.633961 1.404205 2.737327
v 0.081288 1.666667 0.408661
vn 1.042925 2.672930 5.243141
v 0.162575 0.833333 0.817321
vn 0.435395 -1.663535 2.638690
v 0.243863 0.000000 1.225982
vn 0.000000 -6.000000 0.000000
v 0.162575 0.000000 0.817321
vn 0.000000 -3.067739 0.000000
v 0.081288 0.000000 0.408661
vn 1.155805 1.404205 2.561050
v 0.159451 1.666667 0.384950
vn 2.045772 2.672930 4.938931
v 0.318903 0.833333 0.769900
vn 0.941812 -1.663535 2.503047
v 0.478354 0.000000 1.154849
vn 0.000000 -6.000000 0.000000
v 0.318903 0.000000 0.769900
vn 0.000000 -3.067739 0.000000
v 0.159451 0.000000 0.384950
vn 1.633233 1.404205 2.286354
v 0.231488 1.666667 0.346446
vn 2.970000 2.672930 4.444921
v 0.462975 0.833333 0.692891
vn 1.412036 -1.663535 2.271214
v 0.694463 0.000000 1.039337
vn 0.000000 -6.000000 0.000000
v 0.462975 0.000000 0.692891
vn 0.000000 -3.067739 0.000000
v 0.231488 0.000000 0.346446
vn 2.047896 1.404205 1.923794
v 0.294628 1.666667 0.294628
vn 3.780094 2.672930 3.780094
v 0.589256 0.833333 0.589256
vn 1.827996 -1.663535 1.952098
v 0.883883 0.000000 0.883884
vn 0.000000 -6.000000 0.000000
v 0.589256 0.000000 0.589256
vn 0.000000 -3.067739 0.000000
v 0.294628 0.000000 0.294628
vn 2.383860 1.404205 1.487305
v 0.346446 1.666667 0.231488
vn 4.444921 2.672930 2.970001
v 0.692891 0.833333 0.462975
vn 2.173707 -1.663535 1.557965
v 1.039337 0.000000 0.694463
vn 0.000000 -6.000000 0.000000
v 0.692891 0.000000 0.462975
vn 0.000000 -3.067739 0.000000
v 0.346446 0.000000 0.231488
vn 2.628213 1.404205 0.993658
v 0.384950 1.666667 0.159451
vn 4.938931 2.672930 2.045773
v 0.769900 0.833333 0.318903
vn 2.435883 -1.663535 1.103960
v 1.154849 0.000000 0.478354
vn 0.000000 -6.000000 0.000000
v 0.769900 0.000000 0.318903
vn 0.000000 -3.067739 0.000000
v 0.384950 0.000000 0.159451
vn 2.771566 1.404205 0.461826
v 0.408661 1.666667 0.081288
vn 5.243141 2.672930 1.042926
v 0.817321 0.833333 0.162575
vn 2.604451 -1.663535 0.607530
v 1.225982 0.000000 0.243863
vn 0.000000 -6.000000 0.000000
v 0.817321 0.000000 0.162575
vn 0.000000 -3.067739 0.000000
v 0.408661 0.000000 0.081288
vn 2.808409 1.404205 -0.087753
v 0.416667 1.666667 0.000000
vn 5.345860 2.672930 -0.000000
v 0.833333 0.833333 0.000000
vn 2.672930 -1.663535 0.087754
v 1.250000 0.000000 0.000000
vn 0.000000 -6.000000 0.000000
v 0.833333 0.000000 0.000000
vn 0.000000 -3.067739 0.000000
v 0.416667 0.000000 0.000000
vn 2.737327 1.404205 -0.633961
v 0.408661 1.666667 -0.081288
vn 5.243141 2.672930 -1.042925
v 0.817321 0.833333 -0.162575
vn 2.638690 -1.663535 -0.435395
v 1.225982 0.000000 -0.243863
vn 0.000000 -6.000000 0.000000
v 0.817321 0.000000 -0.162575
vn 0.000000 -3.067739 0.000000
v 0.408661 0.000000 -0.081288
vn 2.561050 1.404205 -1.155805
v 0.384950 1.666667 -0.159451
vn 4.938931 2.672930 -2.045772
v 0.769900 0.833333 -0.318903
vn 2.503047 -1.663535 -0.941812
v 1.154849 0.000000 -0.478354
vn 0.000000 -6.000000 0.000000
v 0.769900 0.000000 -0.318903
vn 0.000000 -3.067739 0.000000
v 0.384950 0.000000 -0.159451
vn 2.286355 1.404205 -1.633232
v 0.346446 1.666667 -0.231488
vn 4.444921 2.672930 -2.970000
v 0.692891 0.833333 -0.462975
vn 2.271214 -1.663535 -1.412035
v 1.039337 0.000000 -0.694463
vn 0.000000 -6.000000 0.000000
v 0.692891 0.000000 -0.462975
vn 0.000000 -3.067739 0.000000
v 0.346446 0.000000 -0.231488
vn 1.923795 1.404205 -2.047896
v 0.294628 1.666667 -0.294628
vn 3.780095 2.672930 -3.780093
v 0.589256 0.833333 -0.589256
vn 1.952099 -1.663535 -1.827995
v 0.883884 0.000000 -0.883883
vn 0.000000 -6.000000 0.000000
v 0.589256 0.000000 -0.589256
vn 0.000000 -3.067739 0.000000
v 0.294628 0.000000 -0.294628
vn 1.487305 1.404205 -2.383860
v 0.231488 1.666667 -0.346446
vn 2.970002 2.672930 -4.444920
v 0.462975 0.833333 -0.692891
vn 1.557965 -1.663535 -2.173707
v 0.694463 0.000000 -1.039337
vn 0.000000 -6.000000 0.000000
v 0.462975 0.000000 -0.692891
vn 0.000000 -3.067739 0.000000
v 0.231488 0.000000 -0.346446
vn 0.993658 1.404205 -2.628214
v 0.159451 1.666667 -0.384950
vn 2.045773 2.672930 -4.938931
v 0.318903 0.833333 -0.769900
vn 1.103960 -1.663535 -2.435884
v 0.478354 0.000000 -1.154849
vn 0.000000 -6.000000 0.000000
v 0.318903 0.000000 -0.769900
vn 0.000000 -3.067739 0.000000
v 0.159451 0.000000 -0.384950
vn 0.461826 1.404205 -2.771566
v 0.081288 1.666667 -0.408661
vn 1.042926 2.672930 -5.243141
v 0.162575 0.833333 -0.817321
vn 0.607530 -1.663535 -2.604450
v 0.243863 0.000000 -1.225982
vn 0.000000 -6.000000 0.000000
v 0.162575 0.000000 -0.817321
vn 0.000000 -3.067739 0.000000
v 0.081288 0.000000 -0.408661
vn -0.087753 1.404205 -2.808409
v 0.000000 1.666667 -0.416667
vn -0.000000 2.672930 -5.345860
v 0.000000 0.833333 -0.833333
vn 0.087754 -1.663535 -2.672930
v 0.000000 0.000000 -1.250000
vn 0.000000 -6.000000 0.000000
v 0.000000 0.000000 -0.833333
vn 0.000000 -3.067739 0.000000
v 0.000000 0.000000 -0.416667
vn -0.633960 1.404205 -2.737327
v -0.081288 1.666667 -0.408661
vn -1.042924 2.672930 -5.243141
v -0.162575 0.833333 -0.817321
vn -0.435395 -1.663535 -2.638690
v -0.243863 0.000000 -1.225982
vn 0.000000 -6.000000 0.000000
v -0.162575 0.000000 -0.817321
vn 0.000000 -3.067739 0.000000
v -0.081288 0.000000 -0.408661
vn -1.155805 1.404205 -2.561051
v -0.159451 1.666667 -0.384950
vn -2.045771 2.672930 -4.938931
v -0.318903 0.833333 -0.769900
vn -0.941811 -1.663535 -2.503047
v -0.478354 0.000000 -1.154850
vn 0.000000 -6.000000 0.000000
v -0.318903 0.000000 -0.769900
vn 0.000000 -3.067739 0.000000
v -0.159451 0.000000 -0.384950
vn -1.633232 1.404205 -2.286354
v -0.231488 1.666667 -0.346446
vn -2.970000 2.672930 -4.444921
v -0.462975 0.833333 -0.692891
vn -1.412036 -1.663535 -2.271214
v -0.694463 0.000000 -1.039337
vn 0.000000 -6.000000 0.000000
v -0.462975 0.000000 -0.692891
vn 0.000000 -3.067739 0.000000
v -0.231488 0.000000 -0.346446
vn -2.047896 1.404205 -1.923795
v -0.294628 1.666667 -0.294628
vn -3.780093 2.672930 -3.780095
v -0.589256 0.833333 -0.589256
vn -1.827996 -1.663535 -1.952098
v -0.883883 0.000000 -0.883884
vn 0.000000 -6.000000 0.000000
v -0.589256 0.000000 -0.589256
vn 0.000000 -3.067739 0.000000
v -0.294628 0.000000 -0.294628
vn -2.383860 1.404205 -1.487305
v -0.346446 1.666667 -0.231488
vn -4.444920 2.672930 -2.970001
v -0.692891 0.833333 -0.462975
vn -2.173707 -1.663535 -1.557965
v -1.039337 0.000000 -0.694463
vn 0.000000 -6.000000 0.000000
v -0.692891 0.000000 -0.462975
vn 0.000000 -3.067739 0.000000
v -0.346446 0.000000 -0.231488
vn -2.628214 1.404205 -0.993659
v -0.384950 1.666667 -0.159452
vn -4.938930 2.672930 -2.045774
v -0.769900 0.833333 -0.318903
vn -2.435883 -1.663535 -1.103961
v -1.154849 0.000000 -0.478355
vn 0.000000 -6.000000 0.000000
v -0.769900 0.000000 -0.318903
vn 0.000000 -3.067739 0.000000
v -0.384950 0.000000 -0.159452
vn -2.771566 1.404205 -0.461826
v -0.408661 1.666667 -0.081288
vn -5.243141 2.672930 -1.042926
v -0.817321 0.833333 -0.162575
vn -2.604450 -1.663535 -0.607531
v -1.225982 0.000000 -0.243863
vn 0.000000 -6.000000 0.000000
v -0.817321 0.000000 -0.162575
vn 0.000000 -3.067739 0.000000
v -0.408661 0.000000 -0.081288
vn -2.808409 1.404205 0.087753
v -0.416667 1.666667 -0.000000
vn -5.345860 2.672930 0.000000
v -0.833333 0.833333 -0.000000
vn -2.672930 -1.663535 -0.087754
v -1.250000 0.000000 -0.000000
vn 0.000000 -6.000000 0.000000
v -0.833333 0.000000 -0.000000
vn 0.000000 -3.067739 0.000000
v -0.416667 0.000000 -0.000000
vn -2.737327 1.404205 0.633960
v -0.408661 1.666667 0.081288
vn -5.243141 2.672930 1.042924
v -0.817321 0.833333 0.162575
vn -2.638690 -1.663535 0.435395
v -1.225982 0.000000 0.243863
vn 0.000000 -6.000000 0.000000
v -0.817321 0.000000 0.162575
vn 0.000000 -3.067739 0.000000
v -0.408661 0.000000 0.081288
vn -2.561051 1.404205 1.155805
v -0.384950 1.666667 0.159451
vn -4.938931 2.672930 2.045770
v -0.769900 0.833333 0.318903
vn -2.503047 -1.663535 0.941811
v -1.154850 0.000000 0.478354
vn 0.000000 -6.000000 0.000000
v -0.769900 0.000000 0.318903
vn 0.000000 -3.067739 0.000000
v -0.384950 0.000000 0.159451
vn -2.286354 1.404205 1.633232
v -0.346446 1.666667 0.231487
vn -4.444921 2.672930 2.969999
v -0.692891 0.833333 0.462975
vn -2.271214 -1.663535 1.412035
v -1.039337 0.000000 0.694463
vn 0.000000 -6.000000 0.000000
v -0.692891 0.000000 0.462975
vn 0.000000 -3.067739 0.000000
v -0.346446 0.000000 0.231487
vn -1.923795 1.404205 2.047896
v -0.294628 1.666667 0.294628
vn -3.780095 2.672930 3.780093
v -0.589256 0.833333 0.589256
vn -1.952099 -1.663535 1.827995
v -0.883884 0.000000 0.883883
vn 0.000000 -6.000000 0.000000
v -0.589256 0.000000 0.589256
vn 0.000000 -3.067739 0.000000
v -0.294628 0.000000 0.294628
vn -1.487305 1.404205 2.383860
v -0.231488 1.666667 0.346446
vn -2.970002 2.672930 4.444919
v -0.462975 0.833333 0.692891
vn -1.557966 -1.663535 2.173706
v -0.694463 0.000000 1.039337
vn 0.000000 -6.000000 0.000000
v -0.462975 0.000000 0.692891
vn 0.000000 -3.067739 0.000000
v -0.231488 0.000000 0.346446
vn -0.993659 1.404205 2.628213
v -0.159452 1.666667 0.384950
vn -2.045774 2.672930 4.938930
v -0.318903 0.833333 0.769900
vn -1.103960 -1.663535 2.435883
v -0.478355 0.000000 1.154849
vn 0.000000 -6.000000 0.000000
v -0.318903 0.000000 0.769900
vn 0.000000 -3.067739 0.000000
v -0.159452 0.000000 0.384950
vn -0.461826 1.404205 2.771567
v -0.081288 1.666667 0.408661
vn -1.042926 2.672930 5.243141
v -0.162575 0.833333 0.817321
vn -0.607531 -1.663535 2.604450
v -0.243863 0.000000 1.225982
vn 0.000000 -6.000000 0.000000
v -0.162576 0.000000 0.817321
vn 0.000000 -3.067740 0.000000
v -0.081288 0.000000 0.408661
vn 0.000000 1.083835 0.000000
v 0.000000 2.500000 0.000000
vn 0.000000 -1.083835 0.000000
v 0.000000 0.000000 0.000000
# 162 vertices, 0 vertices normals

f 1//1 6//6 161//161
f 6//6 11//11 161//161
f 11//11 16//16 161//161
f 16//16 21//21 161//161
f 21//21 26//26 161//161
f 26//26 31//31 161//161
f 31//31 36//36 161//161
f 36//36 41//41 161//161
f 41//41 46//46 161//161
f 46//46 51//51 161//161
f 51//51 56//56 161//161
f 56//56 61//61 161//161
f 61//61 66//66 161//161
f 66//66 71//71 161//161
f 71//71 76//76 161//161
f 76//76 81//81 161//161
f 81//81 86//86 161//161
f 86//86 91//91 161//161
f 91//91 96//96 161//161
f 96//96 101//101 161//161
f 101//101 106//106 161//161
f 106//106 111//111 161//161
f 111//111 116//116 161//161
f 116//116 121//121 161//161
f 121//121 126//126 161//161
f 126//126 131//131 161//161
f 131//131 136//136 161//161
f 136//136 141//141 161//161
f 141//141 146//146 161//161
f 146//146 151//151 161//161
f 151//151 156//156 161//161
f 156//156 1//1 161//161
f 2//2 7//7 6//6 1//1
f 7//7 12//12 11//11 6//6
f 12//12 17//17 16//16 11//11
f 17//17 22//22 21//21 16//16
f 22//22 27//27 26//26 21//21
f 27//27 32//32 31//31 26//26
f 32//32 37//37 36//36 31//31
f 37//37 42//42 41//41 36//36
f 42//42 47//47 46//46 41//41
f 47//47 52//52 51//51 46//46
f 52//52 57//57 56//56 51//51
f 57//57 62//62 61//61 56//56
f 62//62 67//67 66//66 61//61
f 67//67 72//72 71//71 66//66
f 72//72 77//77 76//76 71//71
f 77//77 82//82 81//81 76//76
f 82//82 87//87 86//86 81//81
f 87//87 92//92 91//91 86//86
f 92//92 97//97 96//96 91//91
f 97//97 102//102 101//101 96//96
f 102//102 107//107 106//106 101//101
f 107//107 112//112 111//111 106//106
f 112//112 117//117 116//116 111//111
f 117//117 122//122 121//121 116//116
f 122//122 127//127 126//126 121//121
f 127//127 132//132 131//131 126//126
f 132//132 137//137 136//136 131//131
f 137//137 142//142 141//141 136//136
f 142//142 147//147 146//146 141//141
f 147//147 152//152 151//151 146//146
f 152//152 157//157 156//156 151//151
f 157//157 2//2 1//1 156//156
f 3//3 8//8 7//7 2//2
f 8//8 13//13 12//12 7//7
f 13//13 18//18 17//17 12//12
f 18//18 23//23 22//22 17//17
f 23//23 28//28 27//27 22//22
f 28//28 33//33 32//32 27//27
f 33//33 38//38 37//37 32//32
f 38//38 43//43 42//42 37//37
f 43//43 48//48 47//47 42//42
f 48//48 53//53 52//52 47//47
f 53//53 58//58 57//57 52//52
f 58//58 63//63 62//62 57//57
f 63//63 68//68 67//67 62//62
f 68//68 73//73 72//72 67//67
f 73//73 78//78 77//77 72//72
f 78//78 83//83 82//82 77//77
f 83//83 88//88 87//87 82//82
f 88//88 93//93 92//92 87//87
f 93//93 98//98 97//97 92//92
f 98//98 103//103 102//102 97//97
f 103//103 108//108 107//107 102//102
f 108//108 113//113 112//112 107//107
f 113//113 118//118 117//117 112//112
f 118//118 123//123 122//122 117//117
f 123//123 128//128 127//127 122//122
f 128//128 133//133 132//132 127//127
f 133//133 138//138 137//137 132//132
f 138//138 143//143 142//142 137//137
f 143//143 148//148 147//147 142//142
f 148//148 153//153 152//152 147//147
f 153//153 158//158 157//157 152//152
f 158//158 3//3 2//2 157//157
f 4//4 9//9 8//8 3//3
f 9//9 14//14 13//13 8//8
f 14//14 19//19 18//18 13//13
f 19//19 24//24 23//23 18//18
f 24//24 29//29 28//28 23//23
f 29//29 34//34 33//33 28//28
f 34//34 39//39 38//38 33//33
f 39//39 44//44 43//43 38//38
f 44//44 49//49 48//48 43//43
f 49//49 54//54 53//53 48//48
f 54//54 59//59 58//58 53//53
f 59//59 64//64 63//63 58//58
f 64//64 69//69 68//68 63//63
f 69//69 74//74 73//73 68//68
f 74//74 79//79 78//78 73//73
f 79//79 84//84 83//83 78//78
f 84//84 89//89 88//88 83//83
f 89//89 94//94 93//93 88//88
f 94//94 99//99 98//98 93//93
f 99//99 104//104 103//103 98//98
f 104//104 109//109 108//108 103//103
f 109//109 114//114 113//113 108//108
f 114//114 119//119 118//118 113//113
f 119//119 124//124 123//123 118//118
f 124//124 129//129 128//128 123//123
f 129//129 134//134 133//133 128//128
f 134//134 139//139 138//138 133//133
f 139//139 144//144 143//143 138//138
f 144//144 149//149 148//148 143//143
f 149//149 154//154 153//153 148//148
f 154//154 159//159 158//158 153//153
f 159//159 4//4 3//3 158//158
f 5//5 10//10 9//9 4//4
f 10//10 15//15 14//14 9//9
f 15//15 20//20 19//19 14//14
f 20//20 25//25 24//24 19//19
f 25//25 30//30 29//29 24//24
f 30//30 35//35 34//34 29//29
f 35//35 40//40 39//39 34//34
f 40//40 45//45 44//44 39//39
f 45//45 50//50 49//49 44//44
f 50//50 55//55 54//54 49//49
f 55//55 60//60 59//59 54//54
f 60//60 65//65 64//64 59//59
f 65//65 70//70 69//69 64//64
f 70//70 75//75 74//74 69//69
f 75//75 80//80 79//79 74//74
f 80//80 85//85 84//84 79//79
f 85//85 90//90 89//89 84//84
f 90//90 95//95 94//94 89//89
f 95//95 100//100 99//99 94//94
f 100//100 105//105 104//104 99//99
f 105//105 110//110 109//109 104//104
f 110//110 115//115 114//114 109//109
f 115//115 120//120 119//119 114//114
f 120//120 125//125 124//124 119//119
f 125//125 130//130 129//129 124//124
f 130//130 135//135 134//134 129//129
f 135//135 140//140 139//139 134//134
f 140//140 145//145 144//144 139//139
f 145//145 150//150 149//149 144//144
f 150//150 155//155 154//154 149//149
f 155//155 160//160 159//159 154//154
f 160//160 5//5 4//4 159//159
f 10//10 5//5 162//162
f 15//15 10//10 162//162
f 20//20 15//15 162//162
f 25//25 20//20 162//162
f 30//30 25//25 162//162
f 35//35 30//30 162//162
f 40//40 35//35 162//162
f 45//45 40//40 162//162
f 50//50 45//45 162//162
f 55//55 50//50 162//162
f 60//60 55//55 162//162
f 65//65 60//60 162//162
f 70//70 65//65 162//162
f 75//75 70//70 162//162
f 80//80 75//75 162//162
f 85//85 80//80 162//162
f 90//90 85//85 162//162
f 95//95 90//90 162//162
f 100//100 95//95 162//162
f 105//105 100//100 162//162
f 110//110 105//105 162//162
f 115//115 110//110 162//162
f 120//120 115//115 162//162
f 125//125 120//120 162//162
f 130//130 125//125 162//162
f 135//135 130//130 162//162
f 140//140 135//135 162//162
f 145//145 140//140 162//162
f 150//150 145//145 162//162
f 155//155 150//150 162//162
f 160//160 155//155 162//162
f 5//5 160//160 162//162
# 192 faces, 0 coords texture

# End of File
