####
#
# OBJ File Generated by Meshlab
#
####
# Object icosahedron.obj
#
# Vertices: 12
# Faces: 20
#
####
vn -2.187461 0.000000 3.539390
v -0.525731 0.000000 0.850651
vn 2.187461 0.000000 3.539390
v 0.525731 0.000000 0.850651
vn -2.187461 0.000000 -3.539390
v -0.525731 0.000000 -0.850651
vn 2.187461 0.000000 -3.539390
v 0.525731 0.000000 -0.850651
vn 0.000000 3.539390 2.187461
v 0.000000 0.850651 0.525731
vn 0.000000 3.539390 -2.187461
v 0.000000 0.850651 -0.525731
vn 0.000000 -3.539390 2.187461
v 0.000000 -0.850651 0.525731
vn 0.000000 -3.539390 -2.187461
v 0.000000 -0.850651 -0.525731
vn 3.539390 2.187461 0.000000
v 0.850651 0.525731 0.000000
vn -3.539390 2.187461 -0.000000
v -0.850651 0.525731 0.000000
vn 3.539390 -2.187461 0.000000
v 0.850651 -0.525731 0.000000
vn -3.539390 -2.187461 0.000000
v -0.850651 -0.525731 0.000000
# 12 vertices, 0 vertices normals

f 1//1 2//2 5//5
f 1//1 5//5 10//10
f 10//10 5//5 6//6
f 5//5 9//9 6//6
f 5//5 2//2 9//9
f 9//9 2//2 11//11
f 9//9 11//11 4//4
f 6//6 9//9 4//4
f 6//6 4//4 3//3
f 3//3 4//4 8//8
f 8//8 4//4 11//11
f 8//8 11//11 7//7
f 8//8 7//7 12//12
f 12//12 7//7 1//1
f 1//1 7//7 2//2
f 7//7 11//11 2//2
f 10//10 12//12 1//1
f 10//10 3//3 12//12
f 10//10 6//6 3//3
f 8//8 12//12 3//3
# 20 faces, 0 coords texture

# End of File
