# Blender v2.78 (sub 0) OBJ File: 'cylinder_no2.blend'
# www.blender.org
mtllib cylinder_no2.mtl
o Cylinder
v 0.000000 -0.274371 1.264423
v 0.000000 -0.296153 -1.339027
v 0.076745 -0.266812 1.264360
v 0.076745 -0.288594 -1.339090
v 0.150540 -0.244427 1.264173
v 0.150540 -0.266210 -1.339277
v 0.218551 -0.208076 1.263869
v 0.218551 -0.229859 -1.339582
v 0.278162 -0.159156 1.263459
v 0.278162 -0.180938 -1.339991
v 0.327084 -0.099547 1.262961
v 0.327084 -0.121329 -1.340490
v 0.363436 -0.031539 1.262392
v 0.363436 -0.053321 -1.341059
v 0.385822 0.042254 1.261774
v 0.385822 0.020472 -1.341676
v 0.393381 0.118996 1.261132
v 0.393381 0.097214 -1.342318
v 0.385822 0.195738 1.260490
v 0.385822 0.173956 -1.342960
v 0.363437 0.269531 1.259873
v 0.363437 0.247749 -1.343578
v 0.327084 0.337539 1.259304
v 0.327084 0.315757 -1.344147
v 0.278162 0.397149 1.258805
v 0.278162 0.375367 -1.344645
v 0.218551 0.446069 1.258396
v 0.218551 0.424287 -1.345055
v 0.150540 0.482420 1.258091
v 0.150540 0.460638 -1.345359
v 0.076745 0.504805 1.257904
v 0.076745 0.483023 -1.345546
v -0.000000 0.512363 1.257841
v -0.000000 0.490581 -1.345609
v -0.076745 0.504805 1.257904
v -0.076745 0.483023 -1.345546
v -0.150540 0.482420 1.258091
v -0.150540 0.460638 -1.345359
v -0.218551 0.446069 1.258396
v -0.218551 0.424287 -1.345055
v -0.278162 0.397149 1.258805
v -0.278162 0.375366 -1.344645
v -0.327084 0.337539 1.259304
v -0.327084 0.315757 -1.344147
v -0.363436 0.269531 1.259873
v -0.363436 0.247749 -1.343578
v -0.385822 0.195738 1.260490
v -0.385822 0.173956 -1.342960
v -0.393381 0.118996 1.261132
v -0.393381 0.097214 -1.342318
v -0.385822 0.042254 1.261774
v -0.385822 0.020472 -1.341676
v -0.363436 -0.031539 1.262392
v -0.363436 -0.053321 -1.341059
v -0.327084 -0.099547 1.262961
v -0.327084 -0.121329 -1.340490
v -0.278162 -0.159156 1.263459
v -0.278162 -0.180939 -1.339991
v -0.218550 -0.208077 1.263869
v -0.218550 -0.229859 -1.339582
v -0.150540 -0.244428 1.264173
v -0.150540 -0.266210 -1.339277
v -0.076744 -0.266812 1.264360
v -0.076744 -0.288595 -1.339090
vn 0.0980 -0.9951 0.0083
vn 0.2903 -0.9569 0.0080
vn 0.4714 -0.8819 0.0074
vn 0.6344 -0.7730 0.0065
vn 0.7730 -0.6344 0.0053
vn 0.8819 -0.4714 0.0039
vn 0.9569 -0.2903 0.0024
vn 0.9952 -0.0980 0.0008
vn 0.9952 0.0980 -0.0008
vn 0.9569 0.2903 -0.0024
vn 0.8819 0.4714 -0.0039
vn 0.7730 0.6344 -0.0053
vn 0.6344 0.7730 -0.0065
vn 0.4714 0.8819 -0.0074
vn 0.2903 0.9569 -0.0080
vn 0.0980 0.9951 -0.0083
vn -0.0980 0.9951 -0.0083
vn -0.2903 0.9569 -0.0080
vn -0.4714 0.8819 -0.0074
vn -0.6344 0.7730 -0.0065
vn -0.7730 0.6344 -0.0053
vn -0.8819 0.4714 -0.0039
vn -0.9569 0.2903 -0.0024
vn -0.9952 0.0980 -0.0008
vn -0.9952 -0.0980 0.0008
vn -0.9569 -0.2903 0.0024
vn -0.8819 -0.4714 0.0039
vn -0.7730 -0.6344 0.0053
vn -0.6344 -0.7730 0.0065
vn -0.4714 -0.8819 0.0074
vn -0.0000 -0.0084 -1.0000
vn -0.2903 -0.9569 0.0080
vn -0.0980 -0.9951 0.0083
vn 0.0000 0.0084 1.0000
usemtl None
s off
f 1//1 2//1 4//1 3//1
f 3//2 4//2 6//2 5//2
f 5//3 6//3 8//3 7//3
f 7//4 8//4 10//4 9//4
f 9//5 10//5 12//5 11//5
f 11//6 12//6 14//6 13//6
f 13//7 14//7 16//7 15//7
f 15//8 16//8 18//8 17//8
f 17//9 18//9 20//9 19//9
f 19//10 20//10 22//10 21//10
f 21//11 22//11 24//11 23//11
f 23//12 24//12 26//12 25//12
f 25//13 26//13 28//13 27//13
f 27//14 28//14 30//14 29//14
f 29//15 30//15 32//15 31//15
f 31//16 32//16 34//16 33//16
f 33//17 34//17 36//17 35//17
f 35//18 36//18 38//18 37//18
f 37//19 38//19 40//19 39//19
f 39//20 40//20 42//20 41//20
f 41//21 42//21 44//21 43//21
f 43//22 44//22 46//22 45//22
f 45//23 46//23 48//23 47//23
f 47//24 48//24 50//24 49//24
f 49//25 50//25 52//25 51//25
f 51//26 52//26 54//26 53//26
f 53//27 54//27 56//27 55//27
f 55//28 56//28 58//28 57//28
f 57//29 58//29 60//29 59//29
f 59//30 60//30 62//30 61//30
f 4//31 2//31 64//31 62//31 60//31 58//31 56//31 54//31 52//31 50//31 48//31 46//31 44//31 42//31 40//31 38//31 36//31 34//31 32//31 30//31 28//31 26//31 24//31 22//31 20//31 18//31 16//31 14//31 12//31 10//31 8//31 6//31
f 61//32 62//32 64//32 63//32
f 63//33 64//33 2//33 1//33
f 1//34 3//34 5//34 7//34 9//34 11//34 13//34 15//34 17//34 19//34 21//34 23//34 25//34 27//34 29//34 31//34 33//34 35//34 37//34 39//34 41//34 43//34 45//34 47//34 49//34 51//34 53//34 55//34 57//34 59//34 61//34 63//34
