# Blender v2.78 (sub 0) OBJ File: 'two_cylinder.blend'
# www.blender.org
mtllib big_cylinder.mtl
o Cylinder.001
v 0.361702 0.266407 -0.916640
v 0.354277 2.843555 -0.890476
v 0.507687 0.266946 -0.905963
v 0.500262 2.844094 -0.879800
v 0.648787 0.266965 -0.867016
v 0.641362 2.844113 -0.840852
v 0.779579 0.266464 -0.801294
v 0.772154 2.843612 -0.775130
v 0.895036 0.265461 -0.711324
v 0.887612 2.842609 -0.685160
v 0.990723 0.263996 -0.600562
v 0.983298 2.841145 -0.574399
v 1.062960 0.262125 -0.473266
v 1.055535 2.839273 -0.447102
v 1.108973 0.259919 -0.334327
v 1.101548 2.837067 -0.308164
v 1.126993 0.257464 -0.189085
v 1.119568 2.834612 -0.162921
v 1.116328 0.254853 -0.043121
v 1.108903 2.832001 -0.016957
v 1.077388 0.252187 0.097956
v 1.069963 2.829336 0.124119
v 1.011668 0.249569 0.228723
v 1.004243 2.826717 0.254887
v 0.921695 0.247099 0.344157
v 0.914270 2.824247 0.370320
v 0.810926 0.244872 0.439820
v 0.803501 2.822020 0.465983
v 0.683618 0.242974 0.512036
v 0.676193 2.820122 0.538199
v 0.544664 0.241477 0.558030
v 0.537239 2.818625 0.584194
v 0.399402 0.240439 0.576035
v 0.391977 2.817587 0.602199
v 0.253417 0.239900 0.565359
v 0.245992 2.817048 0.591522
v 0.112317 0.239881 0.526411
v 0.104892 2.817029 0.552575
v -0.018475 0.240382 0.460690
v -0.025900 2.817530 0.486853
v -0.133933 0.241385 0.370719
v -0.141357 2.818532 0.396883
v -0.229619 0.242850 0.259957
v -0.237043 2.819998 0.286121
v -0.301856 0.244721 0.132661
v -0.309281 2.821869 0.158825
v -0.347869 0.246927 -0.006278
v -0.355294 2.824075 0.019886
v -0.365889 0.249382 -0.151520
v -0.373314 2.826530 -0.125357
v -0.355224 0.251993 -0.297484
v -0.362649 2.829141 -0.271321
v -0.316283 0.254658 -0.438561
v -0.323708 2.831806 -0.412397
v -0.250563 0.257277 -0.569328
v -0.257988 2.834424 -0.543165
v -0.160590 0.259747 -0.684762
v -0.168015 2.836895 -0.658598
v -0.049821 0.261974 -0.780424
v -0.057246 2.839122 -0.754261
v 0.077487 0.263872 -0.852641
v 0.070062 2.841020 -0.826477
v 0.216442 0.265369 -0.898635
v 0.209017 2.842517 -0.872471
vn 0.0729 0.0103 -0.9973
vn 0.2661 0.0106 -0.9639
vn 0.4490 0.0104 -0.8935
vn 0.6147 0.0098 -0.7887
vn 0.7568 0.0088 -0.6536
vn 0.8697 0.0075 -0.4934
vn 0.9493 0.0059 -0.3143
vn 0.9924 0.0041 -0.1231
vn 0.9973 0.0021 0.0729
vn 0.9640 0.0001 0.2661
vn 0.8935 -0.0020 0.4490
vn 0.7888 -0.0040 0.6147
vn 0.6537 -0.0058 0.7568
vn 0.4935 -0.0074 0.8697
vn 0.3143 -0.0087 0.9493
vn 0.1231 -0.0097 0.9924
vn -0.0729 -0.0103 0.9973
vn -0.2661 -0.0106 0.9639
vn -0.4490 -0.0104 0.8935
vn -0.6147 -0.0098 0.7887
vn -0.7568 -0.0088 0.6536
vn -0.8697 -0.0075 0.4934
vn -0.9493 -0.0059 0.3143
vn -0.9924 -0.0041 0.1231
vn -0.9973 -0.0021 -0.0729
vn -0.9640 -0.0001 -0.2661
vn -0.8935 0.0020 -0.4490
vn -0.7888 0.0040 -0.6147
vn -0.6537 0.0058 -0.7568
vn -0.4935 0.0074 -0.8697
vn -0.0050 0.9998 0.0175
vn -0.3143 0.0087 -0.9493
vn -0.1231 0.0097 -0.9924
vn 0.0050 -0.9998 -0.0175
usemtl None
s off
f 1//1 2//1 4//1 3//1
f 3//2 4//2 6//2 5//2
f 5//3 6//3 8//3 7//3
f 7//4 8//4 10//4 9//4
f 9//5 10//5 12//5 11//5
f 11//6 12//6 14//6 13//6
f 13//7 14//7 16//7 15//7
f 15//8 16//8 18//8 17//8
f 17//9 18//9 20//9 19//9
f 19//10 20//10 22//10 21//10
f 21//11 22//11 24//11 23//11
f 23//12 24//12 26//12 25//12
f 25//13 26//13 28//13 27//13
f 27//14 28//14 30//14 29//14
f 29//15 30//15 32//15 31//15
f 31//16 32//16 34//16 33//16
f 33//17 34//17 36//17 35//17
f 35//18 36//18 38//18 37//18
f 37//19 38//19 40//19 39//19
f 39//20 40//20 42//20 41//20
f 41//21 42//21 44//21 43//21
f 43//22 44//22 46//22 45//22
f 45//23 46//23 48//23 47//23
f 47//24 48//24 50//24 49//24
f 49//25 50//25 52//25 51//25
f 51//26 52//26 54//26 53//26
f 53//27 54//27 56//27 55//27
f 55//28 56//28 58//28 57//28
f 57//29 58//29 60//29 59//29
f 59//30 60//30 62//30 61//30
f 4//31 2//31 64//31 62//31 60//31 58//31 56//31 54//31 52//31 50//31 48//31 46//31 44//31 42//31 40//31 38//31 36//31 34//31 32//31 30//31 28//31 26//31 24//31 22//31 20//31 18//31 16//31 14//31 12//31 10//31 8//31 6//31
f 61//32 62//32 64//32 63//32
f 63//33 64//33 2//33 1//33
f 1//34 3//34 5//34 7//34 9//34 11//34 13//34 15//34 17//34 19//34 21//34 23//34 25//34 27//34 29//34 31//34 33//34 35//34 37//34 39//34 41//34 43//34 45//34 47//34 49//34 51//34 53//34 55//34 57//34 59//34 61//34 63//34
