####
#
# OBJ File Generated by Meshlab
#
####
# Object cube24.obj
#
# Vertices: 14
# Faces: 24
#
####
mtllib ./cube24.obj.mtl

vn -0.000001 -0.000001 6.283185
v -0.000000 0.000000 1.000000 0.752941 0.752941 0.752941
vn 3.141592 0.000001 -3.141593
v 1.000000 0.000000 -1.000000 0.752941 0.752941 0.752941
vn -1.570796 -1.570796 1.570797
v -1.000000 -1.000000 1.000000 0.752941 0.752941 0.752941
vn 3.141593 -0.000001 3.141593
v 1.000000 0.000000 1.000000 0.752941 0.752941 0.752941
vn -1.570796 -1.570796 -1.570796
v -1.000000 -1.000000 -1.000000 0.752941 0.752941 0.752941
vn 3.141593 3.141593 0.000001
v 1.000000 1.000000 0.000001 0.752941 0.752941 0.752941
vn 0.000001 3.141592 -3.141593
v 0.000000 1.000000 -1.000000 0.752941 0.752941 0.752941
vn -0.000001 3.141593 3.141593
v -0.000001 1.000000 1.000000 0.752941 0.752941 0.752941
vn 1.570796 -1.570796 -1.570796
v 1.000000 -1.000000 -1.000000 0.752941 0.752941 0.752941
vn 1.570796 -1.570796 1.570796
v 1.000000 -1.000000 1.000000 0.752941 0.752941 0.752941
vn 1.570799 1.570799 -1.570796
v 1.000000 1.000000 -0.999999 0.752941 0.752941 0.752941
vn 1.570795 1.570797 1.570799
v 0.999999 1.000000 1.000001 0.752941 0.752941 0.752941
vn -1.570796 1.570796 1.570796
v -1.000000 1.000000 1.000000 0.752941 0.752941 0.752941
vn -1.570796 1.570796 -1.570796
v -1.000000 1.000000 -1.000000 0.752941 0.752941 0.752941
# 14 vertices, 0 vertices normals


usemtl material_0
f 3//3 5//5 10//10
f 6//6 7//7 14//14
f 14//14 13//13 8//8
f 8//8 6//6 14//14
f 10//10 11//11 6//6
f 6//6 4//4 10//10
f 3//3 4//4 1//1
f 1//1 12//12 8//8
f 8//8 3//3 1//1
f 5//5 3//3 14//14
f 7//7 2//2 5//5
f 10//10 5//5 9//9
f 6//6 11//11 7//7
f 8//8 12//12 6//6
f 10//10 9//9 2//2
f 10//10 2//2 11//11
f 6//6 12//12 4//4
f 3//3 10//10 4//4
f 1//1 4//4 12//12
f 8//8 13//13 3//3
f 14//14 3//3 13//13
f 7//7 11//11 2//2
f 5//5 2//2 9//9
f 5//5 14//14 7//7
# 24 faces, 0 coords texture

# End of File
