####
#
# OBJ File Generated by Meshlab
#
####
# Object cube36.obj
#
# Vertices: 20
# Faces: 36
#
####
mtllib ./cube36.obj.mtl

vn 3.141593 -3.141593 0.000000
v 1.000000 -1.000000 0.000000 0.752941 0.752941 0.752941
vn -0.000001 -0.000001 6.283185
v -0.000000 0.000000 1.000000 0.752941 0.752941 0.752941
vn -3.141593 3.141593 0.000000
v -1.000000 1.000000 -0.000000 0.752941 0.752941 0.752941
vn 0.000000 -3.141593 -3.141593
v 0.000000 -1.000000 -1.000000 0.752941 0.752941 0.752941
vn 3.141593 0.000001 -3.141593
v 1.000000 0.000000 -1.000000 0.752941 0.752941 0.752941
vn 0.000000 -3.141593 3.141593
v -0.000000 -1.000000 1.000000 0.752941 0.752941 0.752941
vn 3.141594 -0.000001 3.141593
v 1.000000 0.000000 1.000000 0.752941 0.752941 0.752941
vn -3.141593 -3.141593 0.000000
v -1.000000 -1.000000 -0.000000 0.752941 0.752941 0.752941
vn -3.141593 0.000000 -3.141593
v -1.000000 0.000000 -1.000000 0.752941 0.752941 0.752941
vn 3.141593 3.141593 0.000001
v 1.000000 1.000000 0.000001 0.752941 0.752941 0.752941
vn 0.000001 3.141593 -3.141593
v 0.000000 1.000000 -1.000000 0.752941 0.752941 0.752941
vn -0.000001 3.141593 3.141593
v -0.000001 1.000000 1.000000 0.752941 0.752941 0.752941
vn 1.570796 -1.570796 -1.570796
v 1.000000 -1.000000 -1.000000 0.752941 0.752941 0.752941
vn 1.570796 -1.570796 1.570796
v 1.000000 -1.000000 1.000000 0.752941 0.752941 0.752941
vn -1.570796 -1.570796 1.570796
v -1.000000 -1.000000 1.000000 0.752941 0.752941 0.752941
vn -1.570796 -1.570796 -1.570796
v -1.000000 -1.000000 -1.000000 0.752941 0.752941 0.752941
vn 1.570799 1.570799 -1.570796
v 1.000000 1.000000 -0.999999 0.752941 0.752941 0.752941
vn 1.570795 1.570797 1.570799
v 0.999999 1.000000 1.000001 0.752941 0.752941 0.752941
vn -1.570796 1.570796 1.570796
v -1.000000 1.000000 1.000000 0.752941 0.752941 0.752941
vn -1.570796 1.570796 -1.570796
v -1.000000 1.000000 -1.000000 0.752941 0.752941 0.752941
# 20 vertices, 0 vertices normals


usemtl material_0
f 6//6 8//8 1//1
f 8//8 4//4 1//1
f 10//10 11//11 3//3
f 3//3 19//19 12//12
f 12//12 10//10 3//3
f 1//1 17//17 10//10
f 10//10 7//7 1//1
f 6//6 7//7 2//2
f 2//2 18//18 12//12
f 12//12 15//15 2//2
f 2//2 15//15 6//6
f 8//8 15//15 3//3
f 3//3 20//20 9//9
f 9//9 8//8 3//3
f 11//11 5//5 4//4
f 4//4 16//16 9//9
f 9//9 11//11 4//4
f 1//1 4//4 13//13
f 1//1 14//14 6//6
f 6//6 15//15 8//8
f 8//8 16//16 4//4
f 10//10 17//17 11//11
f 11//11 20//20 3//3
f 12//12 18//18 10//10
f 1//1 13//13 5//5
f 1//1 5//5 17//17
f 10//10 18//18 7//7
f 1//1 7//7 14//14
f 6//6 14//14 7//7
f 2//2 7//7 18//18
f 12//12 19//19 15//15
f 3//3 15//15 19//19
f 9//9 16//16 8//8
f 11//11 17//17 5//5
f 4//4 5//5 13//13
f 9//9 20//20 11//11
# 36 faces, 0 coords texture

# End of File
